<svg id="Capa_1" enable-background="new 0 0 510 510" height="512" viewBox="0 0 510 510" width="512" xmlns="http://www.w3.org/2000/svg"><g><g fill="#ff9f22"><path d="m450 240v30h30v30h30v-30-25-5z"/><path d="m360 240h60v30h-60z"/><path d="m270 240h60v30h-60z"/></g><path d="m180 240h60v30h-60z" fill="#ffda44"/><path d="m90 240h60v30h-60z" fill="#ffda44"/><path d="m0 245v25 30h30v-30h30v-30h-60z" fill="#ffda44"/><path d="m480 420h-30v30h60v-5-25-30h-30z" fill="#ff9f22"/><path d="m30 390h-30v30 25 5h60v-30h-30z" fill="#ffda44"/><path d="m360 420h60v30h-60z" fill="#ff9f22"/><path d="m270 420h60v30h-60z" fill="#ff9f22"/><path d="m180 420h60v30h-60z" fill="#ffda44"/><path d="m90 420h60v30h-60z" fill="#ffda44"/><path d="m0 330h30v30h-30z" fill="#ffda44"/><path d="m480 330h30v30h-30z" fill="#ff9f22"/><path d="m143.033 304.394-21.213 21.213-21.214-21.213-21.212 21.212 21.213 21.214-21.213 21.213 21.212 21.213 21.214-21.213 21.213 21.213 21.213-21.213-21.213-21.213 21.213-21.214z" fill="#ffda44"/><path d="m276.89 346.82 21.22 21.21-21.22 21.22-21.21-21.22v-42.42l21.21-21.22 21.22 21.22z" fill="#ff9f22"/><path d="m255.68 325.61v42.42l-21.21 21.22-21.22-21.22 21.22-21.21-21.22-21.21 21.22-21.22z" fill="#ffda44"/><path d="m430.606 325.606-21.212-21.212-21.214 21.213-21.213-21.213-21.213 21.212 21.213 21.214-21.213 21.213 21.213 21.213 21.213-21.213 21.214 21.213 21.212-21.213-21.213-21.213z" fill="#ff9f22"/><path d="m54.379 210h-3.758c-27.912 0-50.621-22.708-50.621-50.621v-48.758c0-27.913 22.709-50.621 50.621-50.621h3.758c27.912 0 50.621 22.708 50.621 50.621v9.379h-30v-9.379c0-11.371-9.251-20.621-20.621-20.621h-3.758c-11.37 0-20.621 9.25-20.621 20.621v48.758c0 11.371 9.251 20.621 20.621 20.621h3.758c11.37 0 20.621-9.25 20.621-20.621v-9.379h30v9.379c0 27.913-22.709 50.621-50.621 50.621z" fill="#ff415b"/><path d="m189.379 210h-3.758c-27.912 0-50.621-22.708-50.621-50.621v-48.758c0-27.913 22.709-50.621 50.621-50.621h3.758c27.912 0 50.621 22.708 50.621 50.621v48.758c0 27.913-22.709 50.621-50.621 50.621zm-3.758-120c-11.37 0-20.621 9.25-20.621 20.621v48.758c0 11.371 9.251 20.621 20.621 20.621h3.758c11.37 0 20.621-9.25 20.621-20.621v-48.758c0-11.371-9.251-20.621-20.621-20.621z" fill="#ff415b"/><path d="m324.379 210h-54.379v-150h54.379c27.912 0 50.621 22.708 50.621 50.621v48.758c0 27.913-22.709 50.621-50.621 50.621zm-24.379-30h24.379c11.37 0 20.621-9.25 20.621-20.621v-48.758c0-11.371-9.251-20.621-20.621-20.621h-24.379z" fill="#b40042"/><path d="m510 90v-30h-105v150h105v-30h-75v-30h55v-30h-55v-30z" fill="#b40042"/></g></svg>